<svg width="16" height="16" viewBox="0 0 16 16" fill="none" xmlns="http://www.w3.org/2000/svg">
<path d="M11.6 14.6667C8.87817 14.6631 6.26886 13.5803 4.34425 11.6557C2.41964 9.73112 1.33684 7.1218 1.33331 4.39999C1.33331 3.58666 1.65641 2.80665 2.23152 2.23153C2.80663 1.65642 3.58665 1.33333 4.39998 1.33333C4.57221 1.33202 4.74415 1.34765 4.91331 1.37999C5.07685 1.4042 5.23762 1.44439 5.39331 1.49999C5.50281 1.53841 5.60039 1.60475 5.67639 1.69244C5.75239 1.78014 5.80418 1.88615 5.82665 1.99999L6.73998 5.99999C6.7646 6.10857 6.76163 6.22158 6.73136 6.32872C6.70108 6.43585 6.64445 6.5337 6.56665 6.61333C6.47998 6.70666 6.47331 6.71333 5.65331 7.13999C6.30998 8.58057 7.46211 9.73743 8.89998 10.4C9.33331 9.57333 9.33998 9.56666 9.43331 9.47999C9.51294 9.40219 9.61079 9.34556 9.71792 9.31528C9.82506 9.28501 9.93807 9.28204 10.0466 9.30666L14.0466 10.22C14.1568 10.2456 14.2587 10.2988 14.3427 10.3746C14.4267 10.4504 14.49 10.5463 14.5266 10.6533C14.5829 10.8116 14.6253 10.9744 14.6533 11.14C14.6801 11.3075 14.6935 11.477 14.6933 11.6467C14.681 12.4565 14.3488 13.2286 13.7693 13.7944C13.1897 14.3602 12.4099 14.6738 11.6 14.6667ZM4.39998 2.66666C3.94081 2.66842 3.50095 2.8516 3.17627 3.17628C2.85158 3.50097 2.6684 3.94083 2.66665 4.39999C2.66841 6.76872 3.61017 9.03992 5.28511 10.7149C6.96005 12.3898 9.23125 13.3316 11.6 13.3333C12.0591 13.3316 12.499 13.1484 12.8237 12.8237C13.1484 12.499 13.3316 12.0592 13.3333 11.6V11.38L10.24 10.6667L10.0466 11.0333C9.74665 11.6133 9.52665 12.0333 8.96665 11.8067C7.8619 11.4112 6.85911 10.7747 6.03114 9.94325C5.20316 9.11181 4.5708 8.10638 4.17998 6.99999C3.93998 6.47999 4.39331 6.23999 4.96665 5.93999L5.33331 5.75999L4.61998 2.66666H4.39998Z" fill="#969696"/>
</svg>
